<?xml version="1.0" standalone="no"?><!DOCTYPE svg PUBLIC "-//W3C//DTD SVG 1.1//EN" "http://www.w3.org/Graphics/SVG/1.1/DTD/svg11.dtd"><svg t="1732190750475" class="icon" viewBox="0 0 1024 1024" version="1.1" xmlns="http://www.w3.org/2000/svg" p-id="12759" xmlns:xlink="http://www.w3.org/1999/xlink" width="48" height="48"><path d="M853.333333 56.888889H170.666667a122.311111 122.311111 0 0 0-113.777778 113.777778v682.666666a132.551111 132.551111 0 0 0 113.777778 113.777778h682.666666a122.311111 122.311111 0 0 0 113.777778-113.777778V170.666667a122.311111 122.311111 0 0 0-113.777778-113.777778z m-15.928889 414.72l-180.337777 180.337778a41.528889 41.528889 0 0 1-56.888889 0L466.488889 519.395556l-173.511111 170.666666a41.528889 41.528889 0 0 1-56.888889-56.888889l201.386667-201.386666a41.528889 41.528889 0 0 1 56.888888 0L625.777778 564.337778l150.755555-150.755556a41.528889 41.528889 0 1 1 56.888889 56.888889z" fill="#4690ff" p-id="12760"></path></svg>